<svg width="135" height="108" viewBox="0 0 135 108" fill="none" xmlns="http://www.w3.org/2000/svg">
<g filter="url(#filter0_d)">
<path fill-rule="evenodd" clip-rule="evenodd" d="M34.2159 19.875H100.784C104.424 19.875 107.375 23.1209 107.375 27.125V70.625C107.375 74.6291 104.424 77.875 100.784 77.875H34.2159C30.5759 77.875 27.625 74.6291 27.625 70.625V27.125C27.625 23.1209 30.5759 19.875 34.2159 19.875ZM34.875 27.125V70.625H100.125V27.125H34.875ZM42.125 56.125V63.375H49.375V56.125H42.125ZM53 63.375V56.125H63.875V63.375H53ZM85.625 56.125V63.375H92.875V56.125H85.625ZM74.75 63.375V56.125H82V63.375H74.75ZM53 38H42.125V48.875H53V38Z" fill="url(#paint0_linear)"/>
<path d="M8 64V84C8 90.6274 13.3726 96 20 96H40" stroke="#FEDAFF" stroke-width="8" stroke-linecap="round"/>
<path d="M8 36V16C8 9.37258 13.3726 4 20 4H40" stroke="#FEDAFF" stroke-width="8" stroke-linecap="round"/>
<path d="M95 96H115C121.627 96 127 90.6274 127 84V64" stroke="#FEDAFF" stroke-width="8" stroke-linecap="round"/>
<path d="M95 4L115 4C121.627 4 127 9.37258 127 16V36" stroke="#FEDAFF" stroke-width="8" stroke-linecap="round"/>
</g>
<defs>
<filter id="filter0_d" x="0" y="0" width="135" height="108" filterUnits="userSpaceOnUse" color-interpolation-filters="sRGB">
<feFlood flood-opacity="0" result="BackgroundImageFix"/>
<feColorMatrix in="SourceAlpha" type="matrix" values="0 0 0 0 0 0 0 0 0 0 0 0 0 0 0 0 0 0 127 0"/>
<feOffset dy="4"/>
<feGaussianBlur stdDeviation="2"/>
<feColorMatrix type="matrix" values="0 0 0 0 0 0 0 0 0 0 0 0 0 0 0 0 0 0 0.25 0"/>
<feBlend mode="normal" in2="BackgroundImageFix" result="effect1_dropShadow"/>
<feBlend mode="normal" in="SourceGraphic" in2="effect1_dropShadow" result="shape"/>
</filter>
<linearGradient id="paint0_linear" x1="28" y1="20" x2="113" y2="89.5" gradientUnits="userSpaceOnUse">
<stop stop-color="#F80007"/>
<stop offset="1" stop-color="#FA00FF"/>
</linearGradient>
</defs>
</svg>
